<svg width="25" height="24" fill="none" xmlns="http://www.w3.org/2000/svg"><path d="M12.5 0C5.6 0 0 5.5 0 12.3c0 5.44 3.58 10.05 8.55 11.68.62.11.85-.27.85-.6L9.4 21.3c-3.48.74-4.22-1.66-4.22-1.66-.56-1.42-1.39-1.8-1.39-1.8-1.13-.76.1-.74.1-.74 1.25.08 1.9 1.26 1.9 1.26 1.12 1.89 2.93 1.34 3.65 1.03.11-.8.43-1.34.79-1.65-2.78-.3-5.7-1.36-5.7-6.08a4.7 4.7 0 0 1 1.3-3.3 4.31 4.31 0 0 1 .1-3.26s1.05-.33 3.44 1.27a12.18 12.18 0 0 1 6.25 0c2.37-1.6 3.42-1.27 3.42-1.27.67 1.7.25 2.95.13 3.26.8.86 1.28 1.96 1.28 3.3 0 4.73-2.93 5.77-5.7 6.07.43.37.84 1.13.84 2.28l-.02 3.37c0 .32.22.7.86.58 5-1.61 8.58-6.23 8.58-11.66C25 5.5 19.4 0 12.5 0Z" fill="#fff"/></svg>