<svg aria-hidden="true" data-prefix="fas" data-icon="times" class="svg-inline--fa fa-times fa-w-11" xmlns="http://www.w3.org/2000/svg" viewBox="0 0 352 512"><path fill="currentColor" d="m242.72 256 100.07-100.07a31.46 31.46 0 0 0 0-44.48l-22.24-22.24a31.46 31.46 0 0 0-44.48 0L176 189.28 75.93 89.21a31.46 31.46 0 0 0-44.48 0L9.21 111.45a31.46 31.46 0 0 0 0 44.48L109.28 256 9.21 356.07a31.46 31.46 0 0 0 0 44.48l22.24 22.24a31.46 31.46 0 0 0 44.48 0L176 322.72l100.07 100.07a31.46 31.46 0 0 0 44.48 0l22.24-22.24a31.46 31.46 0 0 0 0-44.48L242.72 256z"/></svg>